REM DIRINDEX 1\2,1\3,1\4,1\5
REM DIRNAME folder01,folder02,folder03,folder04,folder05
TITLE ""
FILE "091.mp3" MP3
  TRACK 01 AUDIO
    TITLE "0:"
    INDEX 01 00:00:00
  TRACK 02 AUDIO
    TITLE "2:cjc046_1910"
    INDEX 01 00:00:15
  TRACK 03 AUDIO
    TITLE "0:"
    INDEX 01 00:01:38
  TRACK 04 AUDIO
    TITLE "3:cjc046_1911"
    INDEX 01 00:01:62
  TRACK 05 AUDIO
    TITLE "0:"
    INDEX 01 00:03:08
  TRACK 06 AUDIO
    TITLE "4:cjc046_1912"
    INDEX 01 00:03:19
  TRACK 07 AUDIO
    TITLE "0:"
    INDEX 01 00:04:42
  TRACK 08 AUDIO
    TITLE "2:cjc046_1913"
    INDEX 01 00:05:50
  TRACK 09 AUDIO
    TITLE "0:"
    INDEX 01 00:06:59
  TRACK 10 AUDIO
    TITLE "3:cjc046_1914"
    INDEX 01 00:07:09
  TRACK 11 AUDIO
    TITLE "0:"
    INDEX 01 00:08:26
  TRACK 12 AUDIO
    TITLE "4:cjc046_1915"
    INDEX 01 00:08:40
  TRACK 13 AUDIO
    TITLE "0:"
    INDEX 01 00:09:51
  TRACK 14 AUDIO
    TITLE "2:cjc046_1916"
    INDEX 01 00:10:59
  TRACK 15 AUDIO
    TITLE "0:"
    INDEX 01 00:11:74
  TRACK 16 AUDIO
    TITLE "3:cjc046_1917"
    INDEX 01 00:12:24
  TRACK 17 AUDIO
    TITLE "0:"
    INDEX 01 00:13:53
  TRACK 18 AUDIO
    TITLE "4:cjc046_1918"
    INDEX 01 00:13:67
  TRACK 19 AUDIO
    TITLE "0:"
    INDEX 01 00:15:05
  TRACK 20 AUDIO
    TITLE "2:cjc046_1919"
    INDEX 01 00:16:12
  TRACK 21 AUDIO
    TITLE "0:"
    INDEX 01 00:17:21
  TRACK 22 AUDIO
    TITLE "3:cjc046_1920"
    INDEX 01 00:17:45
  TRACK 23 AUDIO
    TITLE "0:"
    INDEX 01 00:18:44
  TRACK 24 AUDIO
    TITLE "4:cjc046_1921"
    INDEX 01 00:18:56
  TRACK 25 AUDIO
    TITLE "0:"
    INDEX 01 00:19:65
  TRACK 26 AUDIO
    TITLE "2:cjc046_1922"
    INDEX 01 00:20:69
  TRACK 27 AUDIO
    TITLE "0:"
    INDEX 01 00:22:11
  TRACK 28 AUDIO
    TITLE "3:cjc046_1923"
    INDEX 01 00:22:34
  TRACK 29 AUDIO
    TITLE "0:"
    INDEX 01 00:23:38
  TRACK 30 AUDIO
    TITLE "4:cjc046_1924"
    INDEX 01 00:23:48
  TRACK 31 AUDIO
    TITLE "0:"
    INDEX 01 00:24:65
  TRACK 32 AUDIO
    TITLE "2:cjc046_1925"
    INDEX 01 00:25:74
  TRACK 33 AUDIO
    TITLE "0:"
    INDEX 01 00:27:14
  TRACK 34 AUDIO
    TITLE "3:cjc046_1926"
    INDEX 01 00:27:39
  TRACK 35 AUDIO
    TITLE "0:"
    INDEX 01 00:29:29
  TRACK 36 AUDIO
    TITLE "4:cjc046_1927"
    INDEX 01 00:29:40
  TRACK 37 AUDIO
    TITLE "0:"
    INDEX 01 00:30:59
  TRACK 38 AUDIO
    TITLE "2:cjc046_1928"
    INDEX 01 00:31:63
  TRACK 39 AUDIO
    TITLE "0:"
    INDEX 01 00:32:74
  TRACK 40 AUDIO
    TITLE "3:cjc046_1929"
    INDEX 01 00:33:26
  TRACK 41 AUDIO
    TITLE "0:"
    INDEX 01 00:34:26
  TRACK 42 AUDIO
    TITLE "4:cjc046_1930"
    INDEX 01 00:34:38
  TRACK 43 AUDIO
    TITLE "0:"
    INDEX 01 00:35:49
  TRACK 44 AUDIO
    TITLE "2:cjc046_1931"
    INDEX 01 00:36:58
  TRACK 45 AUDIO
    TITLE "0:"
    INDEX 01 00:37:59
  TRACK 46 AUDIO
    TITLE "3:cjc046_1932"
    INDEX 01 00:38:08
  TRACK 47 AUDIO
    TITLE "0:"
    INDEX 01 00:39:17
  TRACK 48 AUDIO
    TITLE "4:cjc046_1933"
    INDEX 01 00:39:33
  TRACK 49 AUDIO
    TITLE "0:"
    INDEX 01 00:40:34
  TRACK 50 AUDIO
    TITLE "2:cjc046_1934"
    INDEX 01 00:41:44
  TRACK 51 AUDIO
    TITLE "0:"
    INDEX 01 00:42:59
  TRACK 52 AUDIO
    TITLE "3:cjc046_1935"
    INDEX 01 00:43:03
  TRACK 53 AUDIO
    TITLE "0:"
    INDEX 01 00:44:22
  TRACK 54 AUDIO
    TITLE "4:cjc046_1936"
    INDEX 01 00:44:32
  TRACK 55 AUDIO
    TITLE "0:"
    INDEX 01 00:45:45
  TRACK 56 AUDIO
    TITLE "2:cjc046_1937"
    INDEX 01 00:46:51
  TRACK 57 AUDIO
    TITLE "0:"
    INDEX 01 00:47:58
  TRACK 58 AUDIO
    TITLE "3:cjc046_1938"
    INDEX 01 00:48:12
  TRACK 59 AUDIO
    TITLE "0:"
    INDEX 01 00:49:25
  TRACK 60 AUDIO
    TITLE "4:cjc046_1939"
    INDEX 01 00:49:41
  TRACK 61 AUDIO
    TITLE "0:"
    INDEX 01 00:50:50
